<svg xmlns="http://www.w3.org/2000/svg" width="32" height="30" fill="none" viewBox="0 0 32 30">
  <path fill="#000" d="M13.833 14.62c.27-.28.6-.501.97-.644a8.997 8.997 0 0 1-.54-3.468.235.235 0 0 1 .186-.221.244.244 0 0 1 .29.254 8.52 8.52 0 0 0 .522 3.303 2.71 2.71 0 0 1 1.422.108 9.123 9.123 0 0 1 4.045-4.576A8.723 8.723 0 0 0 15.774 0a8.723 8.723 0 0 0-1.94 14.62Z"/>
  <path fill="#000" d="M13.64 14.843a9.124 9.124 0 0 1-3.102-5.262A8.723 8.723 0 0 0 .09 11.395a8.723 8.723 0 0 0 5.97 7.275 8.703 8.703 0 0 0 7.336-.91 2.68 2.68 0 0 1-.313-1.122 8.999 8.999 0 0 1-3.465-.559.235.235 0 0 1-.153-.245.244.244 0 0 1 .332-.196 8.519 8.519 0 0 0 3.302.523c.06-.493.254-.944.543-1.318Z"/>
  <path fill="#000" d="M13.547 18.01a9.124 9.124 0 0 1-5.963 1.325 8.723 8.723 0 0 0-1.503 10.497 8.723 8.723 0 0 0 8.763-3.428 8.703 8.703 0 0 0 1.401-7.258 2.707 2.707 0 0 1-1.164-.049 8.998 8.998 0 0 1-1.601 3.123.235.235 0 0 1-.28.07c-.146-.065-.184-.252-.085-.377.7-.885 1.215-1.9 1.518-2.979a2.707 2.707 0 0 1-1.086-.923Z"/>
  <path fill="#000" d="M16.531 19.079a9.123 9.123 0 0 1-.583 6.08 8.723 8.723 0 0 0 9.52 4.674 8.723 8.723 0 0 0-7.024-12.97 2.68 2.68 0 0 1-.406 1.092c.976.656 1.82 1.5 2.475 2.489.06.09.052.207-.02.287-.107.119-.295.097-.384-.035a8.519 8.519 0 0 0-2.365-2.365c-.325.348-.742.61-1.213.748Z"/>
  <path fill="#000" d="M18.469 16.57a9.12 9.12 0 0 1 5.602 2.434 8.723 8.723 0 0 0 7.387-7.609 8.723 8.723 0 0 0-14.504 2.671c.354.173.665.422.912.724a8.995 8.995 0 0 1 3.132-1.584.235.235 0 0 1 .267.108c.08.137 0 .31-.153.353a8.518 8.518 0 0 0-2.979 1.518 2.683 2.683 0 0 1 .336 1.385Z"/>
  <path fill="#000" d="M15.774 18.87a2.379 2.379 0 1 0 0-4.757 2.379 2.379 0 0 0 0 4.757Z"/>
</svg>
